<?xml version="1.0" encoding="utf-8"?>
<!-- Generator: Adobe Illustrator 24.1.2, SVG Export Plug-In . SVG Version: 6.00 Build 0)  -->
<svg version="1.1" id="Layer_1" xmlns="http://www.w3.org/2000/svg" xmlns:xlink="http://www.w3.org/1999/xlink" x="0px" y="0px"
	 viewBox="0 0 298.1 100.6" style="enable-background:new 0 0 298.1 100.6;" xml:space="preserve">
<style type="text/css">
	.st0{fill:#FFFFFF;}
</style>
<g>
	<path class="st0" d="M22.4,71.8c-1.3-2.6-3.4-6.3-5.7-9.8c-2.1-3.3-4.3-6.5-6.2-8.6c-1.6,2.1-2,2.8-3.3,4.6
		c0.1,5.7,0.2,12,0.4,16.1H0c0.5-5.7,0.7-13.9,0.7-22.7C0.6,43.4,0.4,35,0,27.9h7.7c-0.3,6.4-0.4,13.4-0.5,20.3
		c2.4-2.8,4.8-5.8,7.2-8.8c3.4-4.2,6.5-8.4,8.6-11.5h8.7c-4,4.3-10.7,12.4-15.9,18.9c2,4,4.5,8,7,12c2.9,4.5,6,8.9,9.1,13L22.4,71.8
		z"/>
	<path class="st0" d="M42.2,26c-0.5,5.8-0.8,15.2-0.8,23.3c0.1,7.6,0.3,15.6,0.7,22.6h-7.9c0.4-5.1,0.5-11.9,0.5-19.4
		c0-1,0-2.1,0-3.1c-0.1-7.1-0.1-16.6-0.4-23.4H42.2z"/>
	<path class="st0" d="M76.6,71.9c-0.6-2.4-1.3-4.8-2.2-8c-2.7-0.4-5.8-0.6-9-0.5c-2.7,0-5.7,0.4-8.1,0.8c-1.2,3.7-2.1,6.2-2.8,8.7
		l-8.8-0.1c2.3-5.4,5.5-13.5,8.4-21.9c2.7-8,5.6-17.7,7-23h9.5c1.6,5.4,3.9,13.6,6.8,21.8c2.9,8.2,6.3,16.6,8.6,22.2H76.6z
		 M69.8,50.1c-1.3-3.8-2.7-7.6-4.1-11c-1.2,2.8-2.6,6.7-4.1,10.9c-0.8,2.4-1.6,4.8-2.4,7.2c2.1,0.1,4.3,0.4,6.4,0.4
		c2.3,0,4.6-0.3,6.7-0.4C71.6,54.9,70.7,52.5,69.8,50.1z"/>
	<path class="st0" d="M124.6,73.4c-10.1,0-18.3-7.5-18.3-23.4c0-14.9,8.2-23.4,18.3-23.4c10.7-0.1,18.3,6.9,18.3,23.4
		C142.9,67.3,134.7,73.4,124.6,73.4z M124.7,33.6c-6.2,0-10.6,4.1-10.6,16.5c0,12.5,5.2,16.4,10.6,16.6c5.5,0.1,10.6-4.1,10.6-16.6
		C135.2,37.7,130.8,33.6,124.7,33.6z"/>
	<path class="st0" d="M170.1,71.9c-2.8-5.7-7.4-13.4-11.4-18.6c-0.9,0-1.9,0.1-2.7,0.1c0.1,6.4,0.3,12.8,0.6,18.6h-7.6
		c0.4-5.8,0.5-13.9,0.5-22.5c-0.1-7.1-0.2-14.7-0.5-21.5c1.8,0.2,4.2,0.3,6.7,0.3c3.5,0,7.1-0.2,9.4-0.4c5.8-0.4,10.4,4.9,10.4,12.8
		c0,7.7-4.1,11.6-8.4,12.5c3.6,6.4,8.7,14.4,12.2,18.8H170.1z M162.1,34.4h-6c-0.1,3.8-0.2,8.1-0.2,12.6c0.6,0.1,1.5,0.1,2.4,0.1
		c1.4,0,2.9-0.1,3.8-0.1c3.7-0.1,6.7-1.2,6.7-6.5C168.9,37.2,166.2,34.4,162.1,34.4z"/>
	<path class="st0" d="M209.1,71.9c-0.6-2.4-1.3-4.8-2.2-8c-2.8-0.4-5.8-0.6-9-0.5c-2.7,0-5.7,0.4-8.1,0.8c-1.2,3.7-2.1,6.2-2.8,8.7
		l-8.8-0.1c2.3-5.4,5.5-13.5,8.4-21.9c2.8-8,5.6-17.7,7-23h9.5c1.6,5.4,3.9,13.6,6.8,21.8c2.9,8.2,6.3,16.6,8.6,22.2H209.1z
		 M202.3,50.1c-1.3-3.8-2.8-7.6-4.1-11c-1.2,2.8-2.6,6.7-4.1,10.9c-0.8,2.4-1.6,4.8-2.4,7.2c2.1,0.1,4.3,0.4,6.4,0.4
		c2.3,0,4.6-0.3,6.7-0.4C204,54.9,203.2,52.5,202.3,50.1z"/>
	<path class="st0" d="M247.1,72c-3-5.9-6.4-12-10-17.8c-2.9-4.7-5.7-9.1-8.5-13.1c-0.2,4.7-0.2,9.4-0.2,14.1
		c0,5.6,0.2,11.1,0.6,16.7h-7.7c0.4-6.4,0.6-13.7,0.6-20.8c0-1.5,0.1-2.9,0.1-4.3c0-7-0.3-13.7-0.7-18.9h8.4
		c3.2,6.3,6.4,11.9,9.8,17.6c2.8,4.5,5.7,9,8.7,13.6c0.1-2.6,0.1-5.2,0.1-7.9s0-5.2-0.1-7.9c-0.1-5.7-0.3-11.5-0.6-17.1h7.7
		c-0.3,7-0.5,15.3-0.5,23.3c0,8.6,0.2,16.7,0.5,22.4L247.1,72z"/>
	<path class="st0" d="M288.7,71.9c-0.6-2.4-1.3-4.8-2.2-8c-2.8-0.4-5.8-0.6-9-0.5c-2.7,0-5.7,0.4-8.1,0.8c-1.2,3.7-2.1,6.2-2.8,8.7
		l-8.8-0.1c2.3-5.4,5.5-13.5,8.4-21.9c2.8-8,5.6-17.7,7-23h9.5c1.6,5.4,3.9,13.6,6.8,21.8c2.9,8.2,6.3,16.6,8.6,22.2H288.7z
		 M282,50.1c-1.3-3.8-2.8-7.6-4.1-11c-1.2,2.8-2.6,6.7-4.1,10.9c-0.8,2.4-1.6,4.8-2.4,7.2c2.1,0.1,4.3,0.4,6.4,0.4
		c2.3,0,4.6-0.3,6.7-0.4C283.7,54.9,282.9,52.5,282,50.1z"/>
</g>
<g>
	<path class="st0" d="M15.1,3.8c-1.8-0.1-3.8-0.2-5.8-0.2C9.2,6,9.2,8.5,9.2,11c0,0.5,0,1.1,0,1.6c0,3.4,0.1,6.6,0.2,9H5.6
		c0.1-2.6,0.2-6,0.2-9.6c0-2.8-0.1-5.8-0.1-8.5C3.6,3.5,1.6,3.6,0,3.8V0c2.6,0.2,5.5,0.2,8.3,0.2c2.5,0,5-0.1,6.8-0.2V3.8z"/>
	<path class="st0" d="M25.2,22.4c0.1-1.3,0.2-3.1,0.2-5.1c0-0.6,0-1.3,0-2c0-1.6-0.1-3.2-0.2-4.6c-0.1-1.6-1.4-2.1-2.6-2
		c-1,0.1-1.7,0.8-2.4,1.8c0,3.7,0.1,7.7,0.3,11.1h-3.8c0.2-2.5,0.3-5.9,0.3-9.5c0-0.5,0-1,0-1.5c0-3.5-0.1-7.2-0.3-10.6h3.8
		c-0.2,2.2-0.3,5-0.3,8c0.6-0.8,1.6-1.7,3.2-1.9c0.3,0,0.6-0.1,0.9-0.1c1.2,0,2.4,0.3,3.2,0.9c0.9,0.6,1.5,1.7,1.4,3.1
		c-0.1,1.6-0.2,3.5-0.2,5.3c0,0.5,0,1.1,0,1.6c0,2,0,4,0.2,5.4H25.2z"/>
	<path class="st0" d="M37.5,13.8c-1.3,0-2.5,0-3.6,0.1c0,0.2,0,0.4,0,0.6c0,2.9,1.5,4.5,3.2,4.5c2.2,0,2.2-3.3,2.2-3.3l3.5,0.3
		c-0.1,2.9-2.3,6.1-5.7,6.1c-3.5,0-6.6-3-6.6-8.1c0-4.9,2.7-8.2,6.7-8.2c4.7,0,5.7,4.8,5.7,8.1C41.5,13.8,39.5,13.8,37.5,13.8z
		 M37.1,8.8c-1.4,0-2.3,1.1-2.8,2.7c1,0.1,2.2,0.1,3.3,0.1c0.6,0,1.3,0,1.9,0C39.2,10.1,38.5,8.8,37.1,8.8z"/>
</g>
<g>
	<path class="st0" d="M213.1,90.4c-0.7,0-1.7,0-2.6,0c-0.7,0-1.3,0-1.9,0c0.1,3.1,0.1,6.3,0.3,9.2h-3.8c0.2-2.8,0.3-6.9,0.3-11.1
		c0-3.5-0.1-7.2-0.3-10.6c0.9,0.1,2.1,0.2,3.3,0.2c1.7,0,3.5-0.1,4.6-0.2c2.8-0.2,5.1,2.4,5.1,6.3C218.3,88.6,215.6,90.5,213.1,90.4
		z M211.7,81.1h-3c-0.1,1.9-0.1,4-0.1,6.2c0.3,0,0.7,0.1,1.2,0.1c0.7,0,1.4,0,1.9-0.1c1.8-0.1,3.3-0.6,3.3-3.2
		C215.1,82.5,213.7,81.1,211.7,81.1z"/>
	<path class="st0" d="M225,100.1c-3.5,0-6.3-2.6-6.3-8.1c0-5.1,2.8-8.1,6.3-8.1c3.7,0,6.4,2.4,6.4,8.1
		C231.4,98,228.5,100.1,225,100.1z M225,87.2c-1.7,0-2.9,1.2-2.9,4.9c0,3.7,1.4,4.8,2.9,4.9c1.5,0,2.9-1.2,2.9-4.9
		C227.9,88.3,226.7,87.2,225,87.2z"/>
	<path class="st0" d="M241.4,100.6c0-0.2,0-1.5,0.1-1.8c-0.7,0.6-1.5,0.9-2.5,0.9c-2.9,0-6.4-2.7-6.4-7.8c0-4.5,3.2-7.8,6.7-7.8
		c1,0,1.8,0.3,2.4,0.8c-0.1-2.4-0.1-4.8-0.2-7h3.8c-0.2,2.8-0.3,6.6-0.3,10.5c0,3.8,0.1,8.7,0.3,12.2H241.4z M239.1,86.7
		c-2,0-3.2,2.5-3.2,5.6c0,2.9,1.5,4.5,3.2,4.5c1.4,0,2.1-0.8,2.5-1.4c0.1-2,0.1-4.3,0.1-6.6C241.3,87.7,240.5,86.7,239.1,86.7z"/>
	<path class="st0" d="M259.4,93.9c-0.1,2.9-2.3,6.1-5.7,6.1c-3.5,0-6.6-3-6.6-8.1c0.1-4.9,2.7-8.2,6.8-8.2c4,0,5.4,3,5.5,6l-3.3,0.2
		c0-1.6-0.6-3.2-2.4-3.2c-2.1,0-3.2,2.5-3.2,5.6c0,2.9,1.5,4.5,3.2,4.5c2.2,0,2.3-3.3,2.3-3.3L259.4,93.9z"/>
	<path class="st0" d="M273.8,99.9c-0.5,0.1-1,0.2-1.4,0.2c-1.2,0-2-0.5-2.7-1.4c-0.8,0.8-2.1,1.7-3.9,1.6c-3.3-0.1-4.5-2.5-4.5-4.1
		c0-1.7,0.9-4,4.2-4c1.7,0,2.9,0.5,3.7,1.1v-3.1c0-1.7-0.4-3.3-2.4-3.3c-2,0-2.7,2.8-2.7,4.4h-3.3c0-4,2.1-7.5,6.2-7.5
		c4.4,0,5.9,2.7,5.8,6.9c0,0.9-0.1,2.2-0.1,3.4c0,0.8,0,1.7,0.1,2.3c0.1,1.1,0.6,1.1,1.1,1.1V99.9z M269.2,95.9
		c-0.8-0.4-1.8-0.8-2.6-0.8c-1.3,0-1.5,0.6-1.5,1.3s0.7,1.1,1.7,1.1c0.7,0,1.7-0.6,2.5-1.1V95.9z"/>
	<path class="st0" d="M280.3,100c-4,0-4.8-2.8-4.8-4v-1.5h3.2v1.4c0,0.6,0.6,1.3,1.6,1.3s1.5-0.4,1.6-1.1c0.1-0.5,0-1.1-1.5-1.8
		l-2-0.9c-2-0.9-2.9-2.5-2.9-4.4c0-0.3,0-0.6,0.1-0.9c0.4-2.9,2.6-4.3,4.7-4.3c2.2,0,4.3,1.5,4.3,4.6v1.3h-3v-1.3
		c0-0.9-0.7-1.4-1.4-1.4c-0.7,0-1.4,0.4-1.5,1.4c-0.4,1.9,1.8,2.5,3.1,3c3.1,1.4,3.5,3.1,3.4,4.8C284.9,97.8,283.9,100,280.3,100z"
		/>
	<path class="st0" d="M298.1,95.4c0,0,0.1,4.6-5.4,4.6c-3.5,0-5-3.4-4.9-7.2c0.1-1.5,0.1-3.2,0.1-5c-0.7,0-1.2,0.1-1.8,0.1v-3.4
		c0.6,0.1,1.2,0.1,1.8,0.2c0-1.4-0.1-2.7-0.1-4h3.8c-0.1,1.1-0.1,2.6-0.1,4.1c2.2,0,3.4-0.1,5-0.3v3.4c-1.9-0.1-2.9-0.2-5-0.2
		c0,1.8,0.1,3,0.1,5.2c0.1,3.6,1,4.3,1.8,4.4c1,0.1,1.5-0.6,1.7-1.8H298.1z"/>
</g>
</svg>
